<?xml version="1.0" encoding="utf-8"?>
<!-- Generator: Adobe Illustrator 22.0.0, SVG Export Plug-In . SVG Version: 6.00 Build 0)  -->
<svg version="1.1" id="Layer_1" xmlns="http://www.w3.org/2000/svg" xmlns:xlink="http://www.w3.org/1999/xlink" x="0px" y="0px"
	 viewBox="0 0 352.4 232.4" enable-background="new 0 0 352.4 232.4" xml:space="preserve">
<g>
	<path opacity="0.1" fill="#2F313C" d="M251.9,201.4c0,5.9-33.9,10.7-75.8,10.7c-41.8,0-75.8-4.8-75.8-10.7
		c0-5.9,33.9-10.7,75.8-10.7C218,190.6,251.9,195.4,251.9,201.4z"/>
	<g>
		<g>
			<path fill="#E6E8E8" d="M321.1,167.2c0,3.5-2.9,6.3-6.3,6.3H37.6c-3.5,0-6.3-2.9-6.3-6.3V12c0-3.5,2.9-6.3,6.3-6.3h277.1
				c3.5,0,6.3,2.9,6.3,6.3V167.2z"/>
			<path fill="#999999" d="M314.7,5.7H37.6c-3.5,0-6.3,2.9-6.3,6.3v16.1h289.8V12C321.1,8.5,318.2,5.7,314.7,5.7z"/>
			<rect x="31.3" y="27.8" fill="#CECECE" width="289.8" height="5"/>
			<g>
				<path fill="#EFEFEF" d="M273.5,19.4c0,1.6-1.4,3-3,3H87.8c-1.7,0-3-1.4-3-3v-5.1c0-1.6,1.3-3,3-3h182.7c1.6,0,3,1.4,3,3V19.4z"
					/>
			</g>
			<g>
				<path fill="#EFEFEF" d="M307.2,19.4c0,1.6-1.4,3-3,3H285c-1.6,0-3-1.4-3-3v-5.1c0-1.6,1.4-3,3-3h19.3c1.6,0,3,1.4,3,3V19.4z"/>
			</g>
			<path fill="#EFEFEF" d="M51.2,16.9c0,2.1-1.7,3.8-3.8,3.8c-2.1,0-3.8-1.7-3.8-3.8c0-2.1,1.7-3.8,3.8-3.8
				C49.4,13.1,51.2,14.8,51.2,16.9z"/>
			<path fill="#EFEFEF" d="M62.4,16.9c0,2.1-1.7,3.8-3.8,3.8c-2.1,0-3.8-1.7-3.8-3.8c0-2.1,1.7-3.8,3.8-3.8
				C60.7,13.1,62.4,14.8,62.4,16.9z"/>
			<path fill="#EFEFEF" d="M73.7,16.9c0,2.1-1.7,3.8-3.8,3.8s-3.8-1.7-3.8-3.8c0-2.1,1.7-3.8,3.8-3.8S73.7,14.8,73.7,16.9z"/>
		</g>
		<g>
			<path fill="#D1D1D1" d="M39.7,167.2c0-1.3,1.4-2.3,3-2.3h266.9c1.6,0,3,1.1,3,2.3s-1.4,2.3-3,2.3H42.7
				C41.1,169.6,39.7,168.5,39.7,167.2z"/>
		</g>
		<g>
			<g>
				
					<line fill="none" stroke="#A5A5A5" stroke-width="2.5" stroke-linecap="round" stroke-miterlimit="10" x1="95.5" y1="100.4" x2="82.1" y2="88.5"/>
				
					<line fill="none" stroke="#A5A5A5" stroke-width="2.5" stroke-linecap="round" stroke-miterlimit="10" x1="94.8" y1="87.7" x2="82.9" y2="101.2"/>
			</g>
			<g>
				
					<line fill="none" stroke="#A5A5A5" stroke-width="2.5" stroke-linecap="round" stroke-miterlimit="10" x1="270.3" y1="100.4" x2="256.8" y2="88.5"/>
				
					<line fill="none" stroke="#A5A5A5" stroke-width="2.5" stroke-linecap="round" stroke-miterlimit="10" x1="269.5" y1="87.7" x2="257.6" y2="101.2"/>
			</g>
		</g>
		<g>
			<g>
				<g>
					<path fill="#D8D8D8" d="M14.3,117.9h-2.9c0-11,8.9-19.9,19.9-19.9v2.9C21.9,100.9,14.3,108.5,14.3,117.9z"/>
				</g>
				<g>
					<path fill="#D8D8D8" d="M17.7,121.3c0,2.7-2.2,4.9-4.9,4.9c-2.7,0-4.9-2.2-4.9-4.9c0-2.7,2.2-4.9,4.9-4.9
						C15.5,116.4,17.7,118.6,17.7,121.3z"/>
				</g>
				<g>
					<path fill="#D8D8D8" d="M12.9,129.8c-0.5,0-1-0.4-1-1v-5.7c0-0.5,0.4-1,1-1c0.5,0,1,0.4,1,1v5.7
						C13.8,129.4,13.4,129.8,12.9,129.8z"/>
				</g>
				<g>
					<g>
						<path fill="#D8D8D8" d="M16.1,129.8c-0.5,0-1-0.4-1-1v-5.7c0-0.5,0.4-1,1-1c0.5,0,1,0.4,1,1v5.7
							C17.1,129.4,16.6,129.8,16.1,129.8z"/>
					</g>
					<g>
						<path fill="#D8D8D8" d="M9.7,129.8c-0.5,0-1-0.4-1-1v-5.7c0-0.5,0.4-1,1-1c0.5,0,1,0.4,1,1v5.7
							C10.6,129.4,10.2,129.8,9.7,129.8z"/>
					</g>
				</g>
				<g>
					<path fill="#D8D8D8" d="M19.7,125.1c-0.2,0-0.5-0.1-0.7-0.3l-4.1-4.1c-0.4-0.4-0.4-1,0-1.4c0.4-0.4,1-0.4,1.4,0l4.1,4.1
						c0.4,0.4,0.4,1,0,1.4C20.2,125,20,125.1,19.7,125.1z"/>
				</g>
			</g>
			<g>
				<g>
					<path fill="#D8D8D8" d="M341,117.9H338c0-9.4-7.6-17-17-17V98C332,98,341,106.9,341,117.9z"/>
				</g>
				<g>
					<path fill="#D8D8D8" d="M334.7,121.3c0,2.7,2.2,4.9,4.9,4.9c2.7,0,4.9-2.2,4.9-4.9c0-2.7-2.2-4.9-4.9-4.9
						C336.8,116.4,334.7,118.6,334.7,121.3z"/>
				</g>
				<g>
					<path fill="#D8D8D8" d="M339.5,129.8c-0.5,0-1-0.4-1-1v-5.7c0-0.5,0.4-1,1-1c0.5,0,1,0.4,1,1v5.7
						C340.4,129.4,340,129.8,339.5,129.8z"/>
				</g>
				<g>
					<g>
						<path fill="#D8D8D8" d="M336.3,129.8c-0.5,0-1-0.4-1-1v-5.7c0-0.5,0.4-1,1-1c0.5,0,1,0.4,1,1v5.7
							C337.2,129.4,336.8,129.8,336.3,129.8z"/>
					</g>
					<g>
						<path fill="#D8D8D8" d="M342.7,129.8c-0.5,0-1-0.4-1-1v-5.7c0-0.5,0.4-1,1-1c0.5,0,1,0.4,1,1v5.7
							C343.7,129.4,343.2,129.8,342.7,129.8z"/>
					</g>
				</g>
				<g>
					<path fill="#D8D8D8" d="M332.6,125.1c-0.2,0-0.5-0.1-0.7-0.3c-0.4-0.4-0.4-1,0-1.4l4.1-4.1c0.4-0.4,1-0.4,1.4,0
						c0.4,0.4,0.4,1,0,1.4l-4.1,4.1C333.1,125,332.9,125.1,332.6,125.1z"/>
				</g>
			</g>
		</g>
		<g>
			<g>
				<g>
					<rect x="125.6" y="173.5" fill="#D8D8D8" width="2.9" height="27.4"/>
				</g>
				<path fill="#D8D8D8" d="M128.5,200.9c0-4.1-3.3-7.4-7.4-7.4c-4.1,0-7.4,3.3-7.4,7.4H128.5z"/>
			</g>
			<g>
				<g>
					<rect x="223.9" y="173.5" fill="#D8D8D8" width="2.9" height="27.4"/>
				</g>
				<path fill="#D8D8D8" d="M223.9,200.9c0-4.1,3.3-7.4,7.4-7.4c4.1,0,7.4,3.3,7.4,7.4H223.9z"/>
			</g>
		</g>
		
			<line fill="none" stroke="#A5A5A5" stroke-width="2.5" stroke-linecap="round" stroke-miterlimit="10" x1="143.2" y1="121.1" x2="209.2" y2="121.1"/>
	</g>
	<g opacity="0.1">
		
			<line fill="none" stroke="#2F313C" stroke-width="3" stroke-linecap="round" stroke-miterlimit="10" x1="92.1" y1="207.2" x2="26.1" y2="207.2"/>
		
			<line fill="none" stroke="#2F313C" stroke-width="3" stroke-linecap="round" stroke-miterlimit="10" x1="16.7" y1="207.2" x2="5.6" y2="207.2"/>
		
			<line fill="none" stroke="#2F313C" stroke-width="3" stroke-linecap="round" stroke-miterlimit="10" x1="260.2" y1="207.2" x2="326.3" y2="207.2"/>
		
			<line fill="none" stroke="#2F313C" stroke-width="3" stroke-linecap="round" stroke-miterlimit="10" x1="127.7" y1="226.7" x2="173.1" y2="226.7"/>
		
			<line fill="none" stroke="#2F313C" stroke-width="3" stroke-linecap="round" stroke-miterlimit="10" x1="335.7" y1="207.2" x2="346.8" y2="207.2"/>
		
			<line fill="none" stroke="#2F313C" stroke-width="3" stroke-linecap="round" stroke-miterlimit="10" x1="181.5" y1="226.7" x2="192.6" y2="226.7"/>
		
			<line fill="none" stroke="#2F313C" stroke-width="3" stroke-linecap="round" stroke-miterlimit="10" x1="290.8" y1="226.7" x2="245.4" y2="226.7"/>
		
			<line fill="none" stroke="#2F313C" stroke-width="3" stroke-linecap="round" stroke-miterlimit="10" x1="83.3" y1="226.7" x2="72.2" y2="226.7"/>
	</g>
</g>
</svg>
