<?xml version="1.0" encoding="utf-8"?>
<!-- Generator: Adobe Illustrator 22.0.0, SVG Export Plug-In . SVG Version: 6.00 Build 0)  -->
<svg version="1.1" id="Layer_1" xmlns="http://www.w3.org/2000/svg" xmlns:xlink="http://www.w3.org/1999/xlink" x="0px" y="0px"
	 viewBox="0 0 24 24" enable-background="new 0 0 24 24" xml:space="preserve">
<g>
	<path fill="#2F313C" d="M7.1,7.4L5.4,7.5c-0.5,0-0.9,0.3-1.2,0.7l-2,3c-0.2,0.3-0.2,0.7-0.1,1c0.1,0.3,0.5,0.6,0.8,0.6l1.6,0.2
		C4.9,11.2,5.8,9.2,7.1,7.4L7.1,7.4z"/>
	<path fill="#2F313C" d="M10.9,19.5l0.2,1.6c0.1,0.4,0.3,0.7,0.6,0.8C11.9,22,12,22,12.2,22c0.2,0,0.4-0.1,0.6-0.2l3-2
		c0.4-0.3,0.7-0.7,0.7-1.2l0.1-1.7C14.8,18.2,12.8,19.1,10.9,19.5L10.9,19.5z"/>
	<path fill="#2F313C" d="M10.3,18.4c0.1,0,0.1,0,0.2,0c0.8-0.1,1.6-0.4,2.4-0.7l-6.5-6.5C6,12,5.7,12.8,5.6,13.6
		c-0.1,0.3,0.1,0.7,0.3,0.9l3.6,3.6C9.7,18.3,10,18.4,10.3,18.4z"/>
	<path fill="#2F313C" d="M20.4,10.9C22,7.8,22.1,4.5,22,3c0-0.5-0.4-0.9-1-1c-0.2,0-0.5,0-0.9,0c-1.7,0-4.4,0.3-7,1.6
		C11.1,4.7,8.4,7,6.8,10.1c0,0,0,0,0.1,0l7,7c0,0,0,0,0,0.1C17,15.6,19.3,12.9,20.4,10.9L20.4,10.9z M13.6,6.2c1.1-1.1,3-1.1,4.1,0
		c0.6,0.6,0.9,1.3,0.9,2.1s-0.3,1.5-0.9,2.1c-0.6,0.6-1.3,0.9-2.1,0.9c-0.8,0-1.5-0.3-2.1-0.9c-0.6-0.6-0.9-1.3-0.9-2.1
		C12.8,7.5,13.1,6.8,13.6,6.2L13.6,6.2z"/>
	<path fill="#2F313C" d="M14.5,9.5c0.7,0.7,1.8,0.7,2.5,0c0.3-0.3,0.5-0.8,0.5-1.2s-0.2-0.9-0.5-1.2c-0.3-0.3-0.8-0.5-1.2-0.5
		c-0.5,0-0.9,0.2-1.2,0.5c-0.3,0.3-0.5,0.8-0.5,1.2C13.9,8.8,14.1,9.2,14.5,9.5L14.5,9.5z"/>
	<path fill="#2F313C" d="M2.6,18.5c0.1,0,0.3-0.1,0.4-0.2l1.9-1.9c0.2-0.2,0.2-0.6,0-0.8c-0.2-0.2-0.6-0.2-0.8,0l-1.9,1.9
		c-0.2,0.2-0.2,0.6,0,0.8C2.3,18.4,2.4,18.5,2.6,18.5z"/>
	<path fill="#2F313C" d="M6.7,17.3c-0.2-0.2-0.6-0.2-0.8,0L2.2,21c-0.2,0.2-0.2,0.6,0,0.8C2.3,21.9,2.4,22,2.6,22s0.3-0.1,0.4-0.2
		l3.7-3.7C6.9,17.9,6.9,17.6,6.7,17.3L6.7,17.3z"/>
	<path fill="#2F313C" d="M7.6,19.1L5.7,21c-0.2,0.2-0.2,0.6,0,0.8C5.8,21.9,6,22,6.1,22s0.3-0.1,0.4-0.2l1.9-1.9
		c0.2-0.2,0.2-0.6,0-0.8C8.2,18.8,7.8,18.8,7.6,19.1L7.6,19.1z"/>
</g>
</svg>
