<?xml version="1.0" encoding="utf-8"?>
<!-- Generator: Adobe Illustrator 22.0.0, SVG Export Plug-In . SVG Version: 6.00 Build 0)  -->
<svg version="1.1" id="Layer_1" xmlns="http://www.w3.org/2000/svg" xmlns:xlink="http://www.w3.org/1999/xlink" x="0px" y="0px"
	 viewBox="0 0 24 24" enable-background="new 0 0 24 24" xml:space="preserve">
<g>
	<path fill="#999999" d="M2.8,19.6c0,0.1,0.1,0.2,0.1,0.2c0.1,0.1,0,0.3-0.1,0.4l-0.4,0.4l0.9,0.9l0.4-0.4C3.9,21,4.1,21,4.2,21.1
		c0.1,0,0.2,0.1,0.2,0.1c0.1,0,0.2,0.2,0.2,0.3V22H6v-0.5c0-0.1,0.1-0.3,0.2-0.3c0.1,0,0.2-0.1,0.2-0.1c0.1-0.1,0.3,0,0.4,0.1
		l0.4,0.4l0.9-0.9l-0.4-0.4c-0.1-0.1-0.1-0.3-0.1-0.4c0-0.1,0.1-0.2,0.1-0.2c0-0.1,0.2-0.2,0.3-0.2h0.5V18H8.2
		c-0.1,0-0.3-0.1-0.3-0.2c0-0.1-0.1-0.2-0.1-0.2c-0.1-0.1,0-0.3,0.1-0.4l0.4-0.4l-0.9-0.9l-0.4,0.4c-0.1,0.1-0.3,0.1-0.4,0.1
		c-0.1,0-0.2-0.1-0.2-0.1C6.1,16.1,6,16,6,15.8v-0.5H4.7v0.5c0,0.1-0.1,0.3-0.2,0.3c-0.1,0-0.2,0.1-0.2,0.1c-0.1,0.1-0.3,0-0.4-0.1
		l-0.4-0.4l-0.9,0.9l0.4,0.4C3,17.2,3,17.4,2.9,17.5c0,0.1-0.1,0.2-0.1,0.2c0,0.1-0.2,0.2-0.3,0.2H2v1.3h0.5
		C2.7,19.3,2.8,19.4,2.8,19.6z M5.3,17.3c0.7,0,1.3,0.6,1.3,1.3c0,0.7-0.6,1.3-1.3,1.3S4,19.4,4,18.7C4,17.9,4.6,17.3,5.3,17.3z"/>
	<path fill="#999999" d="M2.8,6.2c0,0.1,0.1,0.2,0.1,0.2C3,6.6,3,6.8,2.9,6.9L2.5,7.2l0.9,0.9l0.4-0.4c0.1-0.1,0.3-0.1,0.4-0.1
		c0.1,0,0.2,0.1,0.2,0.1c0.1,0,0.2,0.2,0.2,0.3v0.5H6V8.2C6,8,6.1,7.9,6.2,7.8c0.1,0,0.2-0.1,0.2-0.1c0.1-0.1,0.3,0,0.4,0.1l0.4,0.4
		l0.9-0.9L7.8,6.9C7.7,6.8,7.7,6.6,7.7,6.5c0-0.1,0.1-0.2,0.1-0.2C7.9,6.1,8,6,8.2,6h0.5V4.7H8.2C8,4.7,7.9,4.6,7.8,4.4
		c0-0.1-0.1-0.2-0.1-0.2c-0.1-0.1,0-0.3,0.1-0.4l0.4-0.4L7.2,2.5L6.9,2.9C6.8,3,6.6,3,6.5,2.9c-0.1,0-0.2-0.1-0.2-0.1
		C6.1,2.8,6,2.7,6,2.5V2H4.7v0.5c0,0.1-0.1,0.3-0.2,0.3c-0.1,0-0.2,0.1-0.2,0.1C4.1,3,3.9,3,3.8,2.9L3.4,2.5L2.5,3.4l0.4,0.4
		C3,3.9,3,4.1,2.9,4.2c0,0.1-0.1,0.2-0.1,0.2c0,0.1-0.2,0.2-0.3,0.2H2V6h0.5C2.7,6,2.8,6.1,2.8,6.2z M5.3,4c0.7,0,1.3,0.6,1.3,1.3
		S6.1,6.7,5.3,6.7S4,6.1,4,5.3S4.6,4,5.3,4z"/>
	<path fill="#999999" d="M19.7,13.7h-2.3c-0.6,0-1.1-0.3-1.4-0.8l-1,2c0.6,0.5,1.3,0.8,2.1,0.8h2.6v1l2.3-2l-2.3-2V13.7z"/>
	<path fill="#999999" d="M14.3,14.8l1.6-3.2c0.3-0.6,0.9-0.9,1.5-0.9h2.3v1l2.3-2l-2.3-2v1h-2.6c-1.3,0-2.4,0.7-3,1.8l-1.6,3.2
		c-0.3,0.6-0.9,0.9-1.5,0.9H9.3v2h1.9C12.5,16.7,13.7,16,14.3,14.8z"/>
	<path fill="#999999" d="M12.5,10.6l0.4,0.8l0.6-1.2c0.2-0.3,0.4-0.7,0.6-0.9c-0.6-1-1.7-1.6-2.8-1.6H9.3v2H11
		C11.6,9.7,12.2,10,12.5,10.6z"/>
	<rect x="8" y="9" fill="#999999" width="0.7" height="0.7"/>
	<rect x="6.7" y="9" fill="#999999" width="0.7" height="0.7"/>
	<rect x="8" y="14.7" fill="#999999" width="0.7" height="0.7"/>
	<rect x="6.7" y="14.7" fill="#999999" width="0.7" height="0.7"/>
</g>
</svg>
