<?xml version="1.0" encoding="utf-8"?>
<!-- Generator: Adobe Illustrator 22.0.0, SVG Export Plug-In . SVG Version: 6.00 Build 0)  -->
<svg version="1.1" id="Capa_1" xmlns="http://www.w3.org/2000/svg" xmlns:xlink="http://www.w3.org/1999/xlink" x="0px" y="0px"
	 viewBox="0 0 24 24" enable-background="new 0 0 24 24" xml:space="preserve">
<g>
	<path fill="#1CCECB" d="M20,19.2c2.9-3.4,2.6-8.5-0.7-11.5c1.7,6-2.8,12-9,12c-0.1,0,0.6,0-2.2,0c1.6,1.6,3.6,2.4,5.8,2.4h7.6
		c0.5,0,0.8-0.6,0.4-1L20,19.2z"/>
	<path fill="#1CCECB" d="M10.2,18.4c4.5,0,8.2-3.7,8.2-8.2S14.8,2,10.2,2S2,5.7,2,10.2c0,2,0.7,3.9,2,5.4l-1.8,1.8
		c-0.4,0.4-0.1,1,0.4,1C2.6,18.4,10.2,18.4,10.2,18.4z M6.7,7.3h7c0.3,0,0.6,0.3,0.6,0.6S14,8.5,13.7,8.5h-7c-0.3,0-0.6-0.3-0.6-0.6
		C6.1,7.6,6.4,7.3,6.7,7.3z M6.7,9.7h7c0.3,0,0.6,0.3,0.6,0.6s-0.3,0.6-0.6,0.6h-7c-0.3,0-0.6-0.3-0.6-0.6S6.4,9.7,6.7,9.7z
		 M6.1,12.6c0-0.3,0.3-0.6,0.6-0.6h7c0.3,0,0.6,0.3,0.6,0.6s-0.3,0.6-0.6,0.6h-7C6.4,13.2,6.1,12.9,6.1,12.6z"/>
</g>
</svg>
