<?xml version="1.0" encoding="utf-8"?>
<!-- Generator: Adobe Illustrator 22.0.0, SVG Export Plug-In . SVG Version: 6.00 Build 0)  -->
<svg version="1.1" id="Layer_1" xmlns="http://www.w3.org/2000/svg" xmlns:xlink="http://www.w3.org/1999/xlink" x="0px" y="0px"
	 viewBox="0 0 24 24" enable-background="new 0 0 24 24" xml:space="preserve">
<g>
	<path fill="#2F313C" d="M12,4.9c-0.3,0-0.6-0.3-0.6-0.6V2.6C11.4,2.3,11.7,2,12,2s0.6,0.3,0.6,0.6v1.6C12.6,4.6,12.3,4.9,12,4.9z"
		/>
	<path fill="#2F313C" d="M17.5,7.1c-0.2,0-0.3-0.1-0.4-0.2c-0.2-0.2-0.2-0.6,0-0.9l1.2-1.2c0.2-0.2,0.6-0.2,0.9,0
		c0.2,0.2,0.2,0.6,0,0.9L17.9,7C17.8,7.1,17.6,7.1,17.5,7.1z"/>
	<path fill="#2F313C" d="M21.4,12.6h-1.6c-0.3,0-0.6-0.3-0.6-0.6s0.3-0.6,0.6-0.6h1.6c0.3,0,0.6,0.3,0.6,0.6S21.7,12.6,21.4,12.6z"
		/>
	<path fill="#2F313C" d="M18.6,19.3c-0.2,0-0.3-0.1-0.4-0.2L17,17.9c-0.2-0.2-0.2-0.6,0-0.9c0.2-0.2,0.6-0.2,0.9,0l1.2,1.2
		c0.2,0.2,0.2,0.6,0,0.9C18.9,19.2,18.8,19.3,18.6,19.3z"/>
	<path fill="#2F313C" d="M5.4,19.3c-0.2,0-0.3-0.1-0.4-0.2c-0.2-0.2-0.2-0.6,0-0.9L6.1,17c0.2-0.2,0.6-0.2,0.9,0
		c0.2,0.2,0.2,0.6,0,0.9l-1.2,1.2C5.7,19.2,5.5,19.3,5.4,19.3z"/>
	<path fill="#2F313C" d="M4.3,12.6H2.6C2.3,12.6,2,12.3,2,12s0.3-0.6,0.6-0.6h1.6c0.3,0,0.6,0.3,0.6,0.6S4.6,12.6,4.3,12.6z"/>
	<path fill="#2F313C" d="M6.5,7.1C6.4,7.1,6.2,7.1,6.1,7L4.9,5.8c-0.2-0.2-0.2-0.6,0-0.9c0.2-0.2,0.6-0.2,0.9,0L7,6.1
		C7.2,6.3,7.2,6.7,7,7C6.8,7.1,6.7,7.1,6.5,7.1z"/>
	<path fill="#2F313C" d="M14.5,19.5v1c0,0.8-0.7,1.5-1.5,1.5H11c-0.7,0-1.5-0.5-1.5-1.7v-0.8H14.5z"/>
	<path fill="#2F313C" d="M15.7,7.5c-1.4-1.1-3.2-1.5-4.9-1.2c-2.2,0.5-4,2.3-4.5,4.5c-0.5,2.3,0.4,4.5,2.2,5.9
		C9,17,9.3,17.6,9.4,18.3v0c0,0,0,0,0.1,0h5c0,0,0,0,0,0v0c0.1-0.6,0.5-1.2,1.1-1.7c1.4-1.1,2.2-2.8,2.2-4.6
		C17.8,10.2,17,8.6,15.7,7.5z M15.1,12.4c-0.3,0-0.6-0.3-0.6-0.6c0-1.3-1-2.3-2.3-2.3c-0.3,0-0.6-0.3-0.6-0.6s0.3-0.6,0.6-0.6
		c2,0,3.5,1.6,3.5,3.5C15.8,12.1,15.5,12.4,15.1,12.4z"/>
	<path fill="#2F313C" d="M9.4,18.3L9.4,18.3C9.5,18.3,9.5,18.3,9.4,18.3L9.4,18.3z"/>
	<path fill="#2F313C" d="M14.5,18.3L14.5,18.3C14.5,18.3,14.5,18.3,14.5,18.3L14.5,18.3z"/>
</g>
</svg>
