<?xml version="1.0" encoding="utf-8"?>
<!-- Generator: Adobe Illustrator 22.0.0, SVG Export Plug-In . SVG Version: 6.00 Build 0)  -->
<svg version="1.1" id="Layer_1" xmlns="http://www.w3.org/2000/svg" xmlns:xlink="http://www.w3.org/1999/xlink" x="0px" y="0px"
	 viewBox="0 0 24 24" style="enable-background:new 0 0 24 24;" xml:space="preserve">
<style type="text/css">
	.st0{fill:#FFFFFF;}
</style>
<path class="st0" d="M5.9,14.8L5.9,14.8C6,14.6,6.2,14.3,6.4,14c1.2-0.9,2.4-4.2,2.4-4.2S8.6,8.6,9.2,8.6s1.9,0.4,1.1,2.8
	c-0.8,2.4,0,2.1,0,2.1c0.2,0,0.4-0.1,0.5-0.1l0,0c0,0,2.3-0.5,3.2,0.3c0.7,0.6,0.2,1.5,0.2,1.5s1,0.9,0,1.9c0,0,0.6,1-0.5,1.9
	c0,0,0.5,1.4-1.5,1.9c-0.6,0.1-1.4,0.1-2.1,0.1c-1.8,0-3.6-0.2-3.6-0.2l-1.2-5c0.3-0.2,0.5-0.5,0.6-0.6C5.9,14.9,5.9,14.9,5.9,14.8
	L5.9,14.8z M4.7,16.1l0.9,4.2c0,0.2-0.1,0.4-0.3,0.4H2.4c-0.2,0-0.4-0.2-0.4-0.4l0.5-4.1c0-0.2,0.2-0.4,0.5-0.4h1.2
	C4.4,15.6,4.7,15.8,4.7,16.1z M4.5,19.4c-0.2,0-0.4,0.2-0.4,0.4c0,0.2,0.2,0.4,0.4,0.4c0.2,0,0.4-0.2,0.4-0.4
	C4.9,19.6,4.7,19.4,4.5,19.4z M22,6.9c0,2.1-1.7,3.8-3.8,3.8h-2.6l-1.7,1.7c-0.1,0.1-0.3,0-0.3-0.1v-1.8C12.1,10,11,8.6,11,6.9
	c0-2.1,1.7-3.8,3.8-3.8h3.4C20.3,3.2,22,4.8,22,6.9z M15.4,6.9c0-0.3-0.2-0.5-0.5-0.5c-0.3,0-0.5,0.2-0.5,0.5c0,0.3,0.2,0.5,0.5,0.5
	C15.2,7.4,15.4,7.2,15.4,6.9z M17,6.9c0-0.3-0.2-0.5-0.5-0.5c-0.3,0-0.5,0.2-0.5,0.5c0,0.3,0.2,0.5,0.5,0.5C16.8,7.4,17,7.2,17,6.9z
	 M18.5,6.9c0-0.3-0.2-0.5-0.5-0.5s-0.5,0.2-0.5,0.5c0,0.3,0.2,0.5,0.5,0.5C18.3,7.4,18.5,7.2,18.5,6.9z"/>
</svg>
