<?xml version="1.0" encoding="utf-8"?>
<!-- Generator: Adobe Illustrator 22.0.0, SVG Export Plug-In . SVG Version: 6.00 Build 0)  -->
<svg version="1.1" id="Layer_1" xmlns="http://www.w3.org/2000/svg" xmlns:xlink="http://www.w3.org/1999/xlink" x="0px" y="0px"
	 viewBox="0 0 24 24" enable-background="new 0 0 24 24" xml:space="preserve">
<g>
	<g>
		<path fill="#999999" d="M6.5,12.6c2.5,0,4.5-2,4.5-4.5s-2-4.5-4.5-4.5S2,5.7,2,8.1S4,12.6,6.5,12.6z M6.5,4.5c2,0,3.7,1.6,3.7,3.7
			s-1.6,3.7-3.7,3.7s-3.7-1.6-3.7-3.7S4.4,4.5,6.5,4.5z"/>
		<circle fill="#999999" cx="5" cy="7.1" r="0.6"/>
		<circle fill="#999999" cx="7.9" cy="7.1" r="0.6"/>
		<path fill="#999999" d="M6.5,10.5c0.9,0,1.7-0.5,2.2-1.3c0.1-0.2,0-0.4-0.2-0.5C8.3,8.5,8,8.6,7.9,8.8C7.7,9.4,7.1,9.7,6.5,9.7
			S5.4,9.4,5.1,8.8C5,8.6,4.7,8.5,4.6,8.7C4.4,8.8,4.3,9,4.4,9.2C4.7,10,5.6,10.5,6.5,10.5z"/>
		<path fill="#999999" d="M15.5,10.5c0,0,0.1,0,0.2,0c0.2,0,0.3-0.1,0.4-0.2c0.3-0.6,0.8-0.9,1.4-0.9s1.2,0.3,1.4,0.9
			c0.1,0.2,0.4,0.3,0.5,0.2c0.2-0.1,0.3-0.4,0.2-0.5c-0.4-0.8-1.2-1.3-2.2-1.3s-1.7,0.5-2.1,1.3C15.3,10.1,15.3,10.3,15.5,10.5z"/>
		<path fill="#999999" d="M17.5,12.6c2.5,0,4.5-2,4.5-4.5s-2-4.5-4.5-4.5s-4.5,2-4.5,4.5S15.1,12.6,17.5,12.6z M17.5,4.5
			c2,0,3.7,1.6,3.7,3.7s-1.6,3.7-3.7,3.7s-3.7-1.6-3.7-3.7S15.5,4.5,17.5,4.5z"/>
		<circle fill="#999999" cx="16.1" cy="7.1" r="0.6"/>
		<circle fill="#999999" cx="18.9" cy="7.1" r="0.6"/>
		<path fill="#999999" d="M21.6,14.9L21.6,14.9l-7.5,0c-0.2,0-0.3,0.1-0.4,0.3l-1,3l-1-6.4c0-0.2-0.2-0.3-0.4-0.3
			c-0.2,0-0.4,0.1-0.4,0.2l-1.3,3.2H2.4c-0.2,0-0.4,0.2-0.4,0.4c0,0.2,0.2,0.4,0.4,0.4h7.5c0.2,0,0.3-0.1,0.4-0.2l0.8-2.1l1,6.7
			c0,0.2,0.2,0.3,0.4,0.3h0c0.2,0,0.3-0.1,0.4-0.3l1.4-4.4l7.3,0c0.2,0,0.4-0.2,0.4-0.4S21.8,14.9,21.6,14.9z"/>
	</g>
</g>
</svg>
