<?xml version="1.0" encoding="utf-8"?>
<!-- Generator: Adobe Illustrator 22.0.0, SVG Export Plug-In . SVG Version: 6.00 Build 0)  -->
<svg version="1.1" id="Layer_1" xmlns="http://www.w3.org/2000/svg" xmlns:xlink="http://www.w3.org/1999/xlink" x="0px" y="0px"
	 viewBox="0 0 24 24" enable-background="new 0 0 24 24" xml:space="preserve">
<g>
	<path fill="#FBBB00" d="M6.4,14.1l-0.7,2.6l-2.5,0.1C2.4,15.3,2,13.7,2,12c0-1.7,0.4-3.2,1.1-4.6h0l2.3,0.4l1,2.3
		c-0.2,0.6-0.3,1.3-0.3,1.9C6.1,12.7,6.2,13.4,6.4,14.1z"/>
	<path fill="#518EF8" d="M21.8,10.1c0.1,0.6,0.2,1.2,0.2,1.9c0,0.7-0.1,1.4-0.2,2.1c-0.5,2.3-1.8,4.3-3.5,5.7l0,0l-2.9-0.1L15,17.1
		c1.2-0.7,2.1-1.8,2.6-3h-5.3v-4h5.4H21.8L21.8,10.1z"/>
	<path fill="#28B446" d="M18.3,19.8L18.3,19.8C16.5,21.2,14.4,22,12,22c-3.8,0-7.1-2.1-8.8-5.3l3.2-2.7c0.8,2.3,3,3.9,5.6,3.9
		c1.1,0,2.1-0.3,3-0.8L18.3,19.8z"/>
	<path fill="#F14336" d="M18.4,4.3L15.1,7c-0.9-0.6-2-0.9-3.1-0.9c-2.6,0-4.8,1.7-5.6,4L3.1,7.4h0C4.8,4.2,8.1,2,12,2
		C14.4,2,16.7,2.9,18.4,4.3z"/>
</g>
</svg>
