<?xml version="1.0" encoding="utf-8"?>
<!-- Generator: Adobe Illustrator 22.0.0, SVG Export Plug-In . SVG Version: 6.00 Build 0)  -->
<svg version="1.1" id="Layer_1" xmlns="http://www.w3.org/2000/svg" xmlns:xlink="http://www.w3.org/1999/xlink" x="0px" y="0px"
	 viewBox="0 0 24 24" enable-background="new 0 0 24 24" xml:space="preserve">
<path fill="#1F8DED" d="M19.3,13c0,0.4-0.3,0.7-0.7,0.7c-0.4,0-0.7-0.3-0.7-0.7V7c0-0.4,0.3-0.7,0.7-0.7c0.4,0,0.7,0.3,0.7,0.7V13z
	 M19.1,17.2c-0.1,0.1-2.6,2.2-7.1,2.2c-4.5,0-7-2.1-7.1-2.2c-0.3-0.2-0.3-0.7-0.1-0.9c0.2-0.3,0.7-0.3,0.9-0.1c0,0,2.2,1.8,6.2,1.8
	c4,0,6.2-1.8,6.2-1.8c0.3-0.2,0.7-0.2,0.9,0.1C19.4,16.5,19.4,16.9,19.1,17.2z M4.7,7c0-0.4,0.3-0.7,0.7-0.7C5.7,6.3,6,6.6,6,7v6
	c0,0.4-0.3,0.7-0.7,0.7c-0.4,0-0.7-0.3-0.7-0.7V7L4.7,7z M8,5.7C8,5.3,8.3,5,8.7,5C9,5,9.3,5.3,9.3,5.7v8.9c0,0.4-0.3,0.7-0.7,0.7
	c-0.4,0-0.7-0.3-0.7-0.7V5.7L8,5.7z M11.3,5.3c0-0.4,0.3-0.7,0.7-0.7c0,0,0,0,0,0c0.4,0,0.7,0.3,0.7,0.7c0,0,0,0,0,0V15
	c0,0.4-0.3,0.7-0.7,0.7c-0.4,0-0.7-0.3-0.7-0.7V5.3L11.3,5.3z M14.7,5.7C14.7,5.3,15,5,15.3,5C15.7,5,16,5.3,16,5.7v8.9
	c0,0.4-0.3,0.7-0.7,0.7c-0.4,0-0.7-0.3-0.7-0.7V5.7L14.7,5.7z M19.5,2h-15C3.1,2,2,3.1,2,4.5v15C2,20.9,3.1,22,4.5,22h15
	c1.4,0,2.5-1.1,2.5-2.5v-15C22,3.1,20.9,2,19.5,2z"/>
</svg>
