<?xml version="1.0" encoding="utf-8"?>
<!-- Generator: Adobe Illustrator 22.0.0, SVG Export Plug-In . SVG Version: 6.00 Build 0)  -->
<svg version="1.1" id="Layer_1" xmlns="http://www.w3.org/2000/svg" xmlns:xlink="http://www.w3.org/1999/xlink" x="0px" y="0px"
	 viewBox="0 0 24 24" enable-background="new 0 0 24 24" xml:space="preserve">
<g>
	<path fill="#F44336" d="M10.5,3.2h3.3v0.6H15V3.1C15,2.5,14.5,2,13.9,2h-3.5C9.8,2,9.3,2.5,9.3,3.1v0.6h1.2V3.2z"/>
	<path fill="#F44336" d="M17.8,8.6H6.5C6.2,8.6,5.9,8.8,6,9.1l0.9,11.7C7,21.5,7.5,22,8.2,22h8c0.7,0,1.2-0.5,1.3-1.2l0.9-11.7
		C18.4,8.8,18.1,8.6,17.8,8.6z M9.2,20.8C9.2,20.8,9.2,20.8,9.2,20.8c-0.4,0-0.6-0.2-0.6-0.6L8,10.6c0-0.3,0.2-0.6,0.6-0.6
		c0.3,0,0.6,0.2,0.6,0.6l0.6,9.6C9.8,20.4,9.6,20.7,9.2,20.8z M12.8,20.1c0,0.3-0.3,0.6-0.6,0.6s-0.6-0.3-0.6-0.6v-9.6
		c0-0.3,0.3-0.6,0.6-0.6c0.3,0,0.6,0.3,0.6,0.6V20.1z M16.3,10.6l-0.6,9.6c0,0.3-0.3,0.6-0.6,0.6c0,0,0,0,0,0
		c-0.3,0-0.6-0.3-0.6-0.6l0.6-9.6c0-0.3,0.3-0.6,0.6-0.6C16.1,9.9,16.3,10.2,16.3,10.6z"/>
	<path fill="#F44336" d="M19.9,6.7l-0.4-1.2C19.4,5.2,19.1,5,18.8,5H5.5C5.2,5,4.9,5.2,4.8,5.5L4.4,6.7c-0.1,0.2,0,0.5,0.2,0.6
		c0.1,0,0.2,0.1,0.3,0.1h14.6c0.1,0,0.2,0,0.3-0.1C19.9,7.2,20,6.9,19.9,6.7z"/>
</g>
</svg>
