<?xml version="1.0" encoding="utf-8"?>
<!-- Generator: Adobe Illustrator 22.0.0, SVG Export Plug-In . SVG Version: 6.00 Build 0)  -->
<svg version="1.1" id="Layer_1" xmlns="http://www.w3.org/2000/svg" xmlns:xlink="http://www.w3.org/1999/xlink" x="0px" y="0px"
	 viewBox="0 0 24 24" enable-background="new 0 0 24 24" xml:space="preserve">
<g>
	<path fill="#0077B5" d="M22,22L22,22L22,22l0-7.3c0-3.6-0.8-6.4-5-6.4c-2,0-3.4,1.1-3.9,2.2h-0.1V8.6h-4V22h4.1v-6.6
		c0-1.7,0.3-3.4,2.5-3.4c2.1,0,2.2,2,2.2,3.5V22H22z"/>
	<path fill="#0077B5" d="M2.3,8.6h4.1V22H2.3V8.6z"/>
	<path fill="#0077B5" d="M4.4,2C3.1,2,2,3.1,2,4.4s1.1,2.4,2.4,2.4s2.4-1.1,2.4-2.4C6.8,3.1,5.7,2,4.4,2z"/>
</g>
</svg>
