<?xml version="1.0" encoding="utf-8"?>
<!-- Generator: Adobe Illustrator 22.0.0, SVG Export Plug-In . SVG Version: 6.00 Build 0)  -->
<svg version="1.1" id="Layer_1" xmlns="http://www.w3.org/2000/svg" xmlns:xlink="http://www.w3.org/1999/xlink" x="0px" y="0px"
	 viewBox="0 0 219.8 31" style="enable-background:new 0 0 219.8 31;" xml:space="preserve">
<style type="text/css">
	.st0{fill:#2D66F9;}
</style>
<g>
	<path class="st0" d="M21.2,12.3c0,5.2-3.7,8.3-9.9,8.3H5.4v7.2H2V4.1h9.3C17.4,4.1,21.2,7.2,21.2,12.3z M17.8,12.3
		c0-3.4-2.3-5.3-6.6-5.3H5.4v10.7h5.8C15.5,17.7,17.8,15.7,17.8,12.3z"/>
	<path class="st0" d="M35.1,9.7v3.2c-0.3,0-0.5,0-0.7,0c-3.5,0-5.7,2.1-5.7,6.1v9h-3.3v-18h3.1v3C29.7,10.7,31.9,9.7,35.1,9.7z"/>
	<path class="st0" d="M37.2,18.8c0-5.4,4-9.2,9.4-9.2c5.4,0,9.3,3.8,9.3,9.2c0,5.4-3.9,9.2-9.3,9.2C41.2,28.1,37.2,24.2,37.2,18.8z
		 M52.7,18.8c0-3.8-2.6-6.3-6.1-6.3c-3.5,0-6.1,2.5-6.1,6.3c0,3.8,2.6,6.4,6.1,6.4C50.1,25.2,52.7,22.7,52.7,18.8z"/>
	<path class="st0" d="M77.5,2.6v25.2h-3.1V25c-1.5,2-3.8,3.1-6.4,3.1c-5.3,0-9.1-3.7-9.1-9.2c0-5.5,3.8-9.2,9.1-9.2
		c2.5,0,4.8,1,6.3,2.9V2.6H77.5z M74.3,18.8c0-3.8-2.6-6.3-6.1-6.3c-3.5,0-6.1,2.5-6.1,6.3c0,3.8,2.6,6.4,6.1,6.4
		C71.7,25.2,74.3,22.7,74.3,18.8z"/>
	<path class="st0" d="M100.5,9.8v18h-3.1v-2.7c-1.3,1.9-3.6,2.9-6.1,2.9c-4.7,0-7.8-2.5-7.8-7.9V9.8h3.3v10c0,3.5,1.8,5.3,4.9,5.3
		c3.4,0,5.6-2.1,5.6-6V9.8H100.5z"/>
	<path class="st0" d="M105,18.8c0-5.4,4-9.2,9.5-9.2c3.2,0,5.9,1.3,7.3,3.8l-2.5,1.6c-1.2-1.8-2.9-2.6-4.9-2.6
		c-3.5,0-6.2,2.5-6.2,6.3c0,3.9,2.7,6.4,6.2,6.4c2,0,3.7-0.8,4.9-2.6l2.5,1.6c-1.4,2.5-4.1,3.9-7.3,3.9C109,28.1,105,24.2,105,18.8z
		"/>
	<path class="st0" d="M136.5,26.8c-1,0.8-2.5,1.3-3.9,1.3c-3.6,0-5.7-2-5.7-5.6v-9.9h-3.1V9.8h3.1V5.9h3.3v3.9h5.2v2.7h-5.2v9.8
		c0,1.9,1,3,2.8,3c1,0,1.9-0.3,2.5-0.8L136.5,26.8z"/>
	<path class="st0" d="M150.9,4.1c5.2,0,8.5,2.3,8.5,5.9c0,2.6-1.6,4.6-4.1,5.2c3.1,0.6,5,2.9,5,6c0,4.1-3.4,6.6-9,6.6H140V4.1H150.9
		z M145.3,13.6h5.3c2,0,3.3-1,3.3-2.7c0-1.6-1.3-2.5-3.3-2.5h-5.3V13.6z M145.3,23.5h5.3c2.5,0,4.1-1.1,4.1-2.9
		c0-1.7-1.5-2.8-4.1-2.8h-5.3V23.5z"/>
	<path class="st0" d="M174.7,25.7c-1.2,1.5-3.2,2.4-5.7,2.4c-3.9,0-6.3-2.4-6.3-5.7c0-3.4,2.5-5.5,7-5.5h5v-0.3
		c0-1.9-1.3-3.1-3.8-3.1c-1.6,0-3.5,0.5-5.4,1.6l-1.6-3.6c2.7-1.4,5.1-2.1,8.3-2.1c4.9,0,7.7,2.4,7.8,6.6l0,11.9h-5.1V25.7z
		 M174.6,21.6V20h-4.1c-2,0-3,0.6-3,2.1c0,1.4,1.1,2.3,2.9,2.3C172.6,24.3,174.3,23.2,174.6,21.6z"/>
	<path class="st0" d="M197.7,11.4l-1.8,3.6c-2-1.1-4-1.8-5.6-1.8c-1.2,0-2.1,0.4-2.1,1.4c0,2.8,9.7,1.4,9.6,7.8
		c0,3.7-3.3,5.7-7.4,5.7c-3,0-5.8-0.9-7.9-2.5l1.7-3.5c1.9,1.5,4.4,2.3,6.4,2.3c1.3,0,2.3-0.4,2.3-1.4c0-2.9-9.5-1.4-9.5-7.8
		c0-3.8,3.2-5.7,7.2-5.7C193,9.3,195.6,10.1,197.7,11.4z"/>
	<path class="st0" d="M218.1,20.3H205c0.6,2.3,2.4,3.7,4.7,3.7c1.7,0,3.4-0.7,4.6-1.9l2.8,2.8c-1.8,2-4.5,3.2-7.8,3.2
		c-5.8,0-9.6-3.7-9.6-9.3c0-5.6,3.8-9.4,9.4-9.4C215.6,9.4,218.6,13.6,218.1,20.3z M213.2,17.2c-0.1-2.4-1.6-4-4-4
		c-2.3,0-3.9,1.6-4.3,4H213.2z"/>
</g>
</svg>
