<?xml version="1.0" encoding="utf-8"?>
<!-- Generator: Adobe Illustrator 22.0.0, SVG Export Plug-In . SVG Version: 6.00 Build 0)  -->
<svg version="1.1" id="Layer_1" xmlns="http://www.w3.org/2000/svg" xmlns:xlink="http://www.w3.org/1999/xlink" x="0px" y="0px"
	 viewBox="0 0 24 24" enable-background="new 0 0 24 24" xml:space="preserve">
<g>
	<path fill="#2F313C" d="M16.9,14.9c-0.5-0.7-0.8-1.5-0.8-2.4v-1.6c0-2-1.4-3.6-3.2-4V6.1c0-0.5-0.4-0.9-0.9-0.9
		c-0.5,0-0.9,0.4-0.9,0.9v0.8c-1.9,0.4-3.2,2-3.2,4v1.6c0,0.9-0.3,1.7-0.8,2.4l-0.7,0.9c-0.5,0.6-0.1,1.6,0.7,1.6h9.9
		c0.8,0,1.2-0.9,0.7-1.6L16.9,14.9z"/>
	<path fill="#2F313C" d="M15.9,5.8c-0.3,0.3-0.3,0.8,0,1c1,0.9,1.6,2.2,1.7,3.6c0,0.4,0.4,0.7,0.7,0.7c0,0,0,0,0,0
		c0.4,0,0.7-0.4,0.7-0.8c-0.1-1.7-0.9-3.3-2.1-4.5C16.6,5.5,16.2,5.6,15.9,5.8z"/>
	<path fill="#2F313C" d="M6.4,10.5c0.1-1.3,0.7-2.6,1.7-3.6c0.3-0.3,0.3-0.8,0-1c-0.3-0.3-0.8-0.3-1,0C5.8,7,5.1,8.7,5,10.4
		c0,0.4,0.3,0.8,0.7,0.8c0,0,0,0,0,0C6.1,11.2,6.4,10.8,6.4,10.5z"/>
	<path fill="#2F313C" d="M6.2,4.7c0.3-0.3,0.3-0.7,0-1c-0.3-0.3-0.7-0.3-1,0C3.2,5.5,2,8.1,2,10.9v0.2c0,0.4,0.3,0.7,0.7,0.7
		s0.7-0.3,0.7-0.7v-0.2C3.5,8.5,4.4,6.3,6.2,4.7z"/>
	<path fill="#2F313C" d="M18.8,3.6c-0.3-0.3-0.8-0.3-1,0c-0.3,0.3-0.3,0.8,0,1c1.7,1.6,2.7,3.8,2.7,6.2v0.2c0,0.4,0.3,0.7,0.7,0.7
		s0.7-0.3,0.7-0.7v-0.2C22,8.1,20.8,5.5,18.8,3.6z"/>
	<path fill="#2F313C" d="M12,20.6c1.2,0,2.1-0.9,2.1-2.1H9.9C9.9,19.6,10.8,20.6,12,20.6z"/>
</g>
</svg>
