<?xml version="1.0" encoding="utf-8"?>
<!-- Generator: Adobe Illustrator 22.0.0, SVG Export Plug-In . SVG Version: 6.00 Build 0)  -->
<svg version="1.1" id="Layer_1" xmlns="http://www.w3.org/2000/svg" xmlns:xlink="http://www.w3.org/1999/xlink" x="0px" y="0px"
	 viewBox="0 0 24 24" style="enable-background:new 0 0 24 24;" xml:space="preserve">
<style type="text/css">
	.st0{fill:#FFFFFF;}
</style>
<g>
	<path class="st0" d="M19.4,12.9C20.4,11.3,22,8.2,22,7c0-1.8-1.5-3.2-3.2-3.2S15.5,5.2,15.5,7c0,1.3,1.6,4.3,2.6,5.9
		C18.4,13.4,19.1,13.4,19.4,12.9z M17.2,7c0-0.8,0.7-1.5,1.5-1.5s1.5,0.7,1.5,1.5s-0.7,1.5-1.5,1.5C17.9,8.5,17.2,7.8,17.2,7z"/>
	<path class="st0" d="M19.1,14.7h-6c-0.8,0-1.5-0.7-1.5-1.5c0-0.8,0.7-1.5,1.5-1.5h1.6c0.4,0,0.7-0.3,0.7-0.7c0-0.4-0.3-0.7-0.7-0.7
		h-1.6c-1.5,0-2.8,1.2-2.8,2.8s1.2,2.8,2.8,2.8h6c0.8,0,1.5,0.7,1.5,1.5S19.9,19,19.1,19H8.3c-0.4,0-0.7,0.3-0.7,0.7
		c0,0.4,0.3,0.7,0.7,0.7h10.8c1.5,0,2.8-1.2,2.8-2.8S20.6,14.7,19.1,14.7z"/>
	<path class="st0" d="M5.2,10.7c-1.8,0-3.2,1.5-3.2,3.2c0,1.3,1.6,4.3,2.6,5.9c0.3,0.5,1,0.5,1.3,0c0.9-1.6,2.6-4.7,2.6-5.9
		C8.5,12.1,7,10.7,5.2,10.7z M5.2,15.4c-0.8,0-1.5-0.7-1.5-1.5c0-0.8,0.7-1.5,1.5-1.5s1.5,0.7,1.5,1.5C6.8,14.7,6.1,15.4,5.2,15.4z"
		/>
</g>
</svg>
