<?xml version="1.0" encoding="utf-8"?>
<!-- Generator: Adobe Illustrator 22.0.0, SVG Export Plug-In . SVG Version: 6.00 Build 0)  -->
<svg version="1.1" id="Layer_1" xmlns="http://www.w3.org/2000/svg" xmlns:xlink="http://www.w3.org/1999/xlink" x="0px" y="0px"
	 viewBox="0 0 24 24" enable-background="new 0 0 24 24" xml:space="preserve">
<g>
	<path fill="#2F313C" d="M4.3,2H9c1.3,0,2.3,1,2.3,2.1v15.7c0,1.2-1,2.1-2.3,2.1H4.3C3,22,2,21,2,19.9V4.1C2,3,3,2,4.3,2z M4.2,3.3
		C3.7,3.3,3.4,3.6,3.4,4v15.9c0,0.4,0.4,0.7,0.8,0.7h5c0.5,0,0.8-0.3,0.8-0.7V4.1c0-0.4-0.4-0.7-0.8-0.7L4.2,3.3L4.2,3.3z M14.7,2
		H20c1.1,0,2,0.8,2,1.9v12.2c0,1-0.9,1.9-2,1.9h-5.3c-1.1,0-2-0.8-2-1.9V3.9C12.7,2.8,13.6,2,14.7,2z M14.5,3.3
		c-0.3,0-0.5,0.2-0.5,0.4v12.4c0,0.2,0.2,0.4,0.5,0.4h5.7c0.3,0,0.5-0.2,0.5-0.4V3.8c0-0.2-0.2-0.4-0.5-0.4L14.5,3.3L14.5,3.3z"/>
	<path fill="#2F313C" d="M13.6,3h7.7v4.3h-7.7V3z M2.8,3h7.9v4.3H2.8V3z"/>
</g>
</svg>
