<?xml version="1.0" encoding="utf-8"?>
<!-- Generator: Adobe Illustrator 22.0.0, SVG Export Plug-In . SVG Version: 6.00 Build 0)  -->
<svg version="1.1" id="Layer_1" xmlns="http://www.w3.org/2000/svg" xmlns:xlink="http://www.w3.org/1999/xlink" x="0px" y="0px"
	 viewBox="0 0 24 24" enable-background="new 0 0 24 24" xml:space="preserve">
<g>
	<g>
		<path fill="#2F313C" d="M21.1,12.9h-0.7c-0.2,0-0.4-0.2-0.5-0.4c-0.1-0.2-0.2-0.4-0.2-0.6c-0.1-0.2-0.1-0.5,0.1-0.6l0.5-0.5
			c0.4-0.4,0.4-1,0-1.3l-0.8-0.8c-0.2-0.2-0.4-0.3-0.7-0.3c-0.2,0-0.5,0.1-0.7,0.3l-0.5,0.5c-0.1,0.1-0.2,0.1-0.4,0.1
			c-0.1,0-0.2,0-0.3-0.1c-0.2-0.1-0.4-0.2-0.6-0.2c-0.2-0.1-0.4-0.3-0.4-0.5V7.8c0-0.5-0.4-0.9-0.9-0.9h-1.2c-0.5,0-0.9,0.4-0.9,0.9
			v0.7c0,0.2-0.2,0.4-0.4,0.5c-0.2,0.1-0.4,0.2-0.6,0.2c-0.1,0-0.2,0.1-0.3,0.1c-0.1,0-0.3,0-0.4-0.1l-0.5-0.5
			c-0.2-0.2-0.4-0.3-0.7-0.3c-0.2,0-0.5,0.1-0.7,0.3L8.6,9.5c-0.2,0.2-0.3,0.4-0.3,0.7c0,0.2,0.1,0.5,0.3,0.7l0.5,0.5
			c0.1,0.1,0.2,0.4,0.1,0.6c-0.1,0.2-0.2,0.4-0.2,0.6c-0.1,0.2-0.3,0.4-0.5,0.4H7.8c-0.5,0-0.9,0.4-0.9,0.9V15
			c0,0.5,0.4,0.9,0.9,0.9h0.7c0.2,0,0.4,0.2,0.5,0.4c0.1,0.2,0.2,0.4,0.2,0.6c0.1,0.2,0.1,0.5-0.1,0.6L8.6,18c-0.4,0.4-0.4,1,0,1.3
			l0.8,0.8c0.2,0.2,0.4,0.3,0.7,0.3c0.2,0,0.5-0.1,0.7-0.3l0.5-0.5c0.1-0.1,0.2-0.1,0.4-0.1c0.1,0,0.2,0,0.3,0.1
			c0.2,0.1,0.4,0.2,0.6,0.2c0.2,0.1,0.4,0.3,0.4,0.5v0.7c0,0.5,0.4,0.9,0.9,0.9H15c0.5,0,0.9-0.4,0.9-0.9v-0.7
			c0-0.2,0.2-0.4,0.4-0.5c0.2-0.1,0.4-0.2,0.6-0.2c0.1,0,0.2-0.1,0.3-0.1c0.1,0,0.3,0,0.4,0.1l0.5,0.5c0.2,0.2,0.4,0.3,0.7,0.3
			c0.2,0,0.5-0.1,0.7-0.3l0.8-0.8c0.4-0.4,0.4-1,0-1.3l-0.5-0.5c-0.1-0.1-0.2-0.4-0.1-0.6c0.1-0.2,0.2-0.4,0.2-0.6
			c0.1-0.2,0.3-0.4,0.5-0.4h0.7c0.5,0,0.9-0.4,0.9-0.9v-1.2C22,13.3,21.6,12.9,21.1,12.9z M17.1,14.4c0,1.5-1.2,2.7-2.7,2.7
			c-1.5,0-2.7-1.2-2.7-2.7c0-1.5,1.2-2.7,2.7-2.7C15.9,11.7,17.1,12.9,17.1,14.4z"/>
		<path fill="#2F313C" d="M8.8,6.9c0,0,0.1-0.1,0.1-0.1h0.4c0.3,0,0.6-0.3,0.6-0.6V5.6C9.9,5.3,9.6,5,9.3,5H8.9c0,0-0.1,0-0.1-0.1
			c0-0.1-0.1-0.2-0.1-0.3c0,0,0-0.1,0-0.1l0.3-0.3c0.2-0.2,0.2-0.6,0-0.9L8.5,2.9C8.4,2.8,8.2,2.8,8.1,2.8c-0.2,0-0.3,0.1-0.4,0.2
			L7.4,3.2c0,0,0,0-0.1,0c0,0,0,0-0.1,0c-0.1,0-0.2-0.1-0.3-0.1c0,0-0.1-0.1-0.1-0.1V2.6C6.9,2.3,6.6,2,6.2,2H5.6C5.3,2,5,2.3,5,2.6
			V3c0,0,0,0.1-0.1,0.1c-0.1,0-0.2,0.1-0.3,0.1c0,0,0,0-0.1,0c0,0-0.1,0-0.1,0L4.2,2.9C4.1,2.8,4,2.8,3.8,2.8
			c-0.2,0-0.3,0.1-0.4,0.2L2.9,3.4C2.7,3.6,2.7,4,2.9,4.2l0.3,0.3c0,0,0,0.1,0,0.1c0,0.1-0.1,0.2-0.1,0.3C3.1,5,3,5,3,5H2.6
			C2.3,5,2,5.3,2,5.6v0.6c0,0.3,0.3,0.6,0.6,0.6H3c0,0,0.1,0,0.1,0.1c0,0.1,0.1,0.2,0.1,0.3c0,0,0,0.1,0,0.1L2.9,7.6
			C2.8,7.8,2.8,7.9,2.8,8.1c0,0.2,0.1,0.3,0.2,0.4l0.4,0.4c0.1,0.1,0.3,0.2,0.4,0.2s0.3-0.1,0.4-0.2l0.3-0.3c0,0,0,0,0.1,0
			c0,0,0,0,0.1,0c0.1,0,0.2,0.1,0.3,0.1C5,8.8,5,8.9,5,8.9v0.4c0,0.3,0.3,0.6,0.6,0.6h0.6c0.3,0,0.6-0.3,0.6-0.6V8.9
			c0,0,0-0.1,0.1-0.1c0.1,0,0.2-0.1,0.3-0.1c0,0,0,0,0.1,0c0,0,0.1,0,0.1,0l0.3,0.3c0.1,0.1,0.3,0.2,0.4,0.2s0.3-0.1,0.4-0.2
			l0.4-0.4c0.2-0.2,0.2-0.6,0-0.9L8.7,7.4c0,0,0-0.1,0-0.1C8.7,7.2,8.8,7.1,8.8,6.9z M7.1,5.9c0,0.7-0.5,1.2-1.2,1.2
			c-0.7,0-1.2-0.5-1.2-1.2s0.5-1.2,1.2-1.2C6.6,4.7,7.1,5.3,7.1,5.9z"/>
	</g>
</g>
</svg>
