<?xml version="1.0" encoding="utf-8"?>
<!-- Generator: Adobe Illustrator 22.0.0, SVG Export Plug-In . SVG Version: 6.00 Build 0)  -->
<svg version="1.1" id="Layer_1" xmlns="http://www.w3.org/2000/svg" xmlns:xlink="http://www.w3.org/1999/xlink" x="0px" y="0px"
	 viewBox="0 0 24 24" enable-background="new 0 0 24 24" xml:space="preserve">
<path fill="#E91E63" d="M9.4,12.5c-1.2,0-2.1,0.9-2.1,2.1v5.3C7.3,21,8.2,22,9.4,22s2.1-0.9,2.1-2.1v-5.3
	C11.5,13.5,10.5,12.5,9.4,12.5L9.4,12.5z"/>
<path fill="#E91E63" d="M2,14.6c0,1.2,0.9,2.1,2.1,2.1s2.1-0.9,2.1-2.1v-2.1H4.1c0,0,0,0,0,0C3,12.5,2,13.5,2,14.6z"/>
<path fill="#00BCD4" d="M9.4,2C9.4,2,9.4,2,9.4,2C8.2,2,7.3,2.9,7.3,4.1s0.9,2.1,2.1,2.1h2.1V4.1c0,0,0,0,0,0C11.5,2.9,10.5,2,9.4,2
	z"/>
<path fill="#00BCD4" d="M4.1,11.5h5.3c1.2,0,2.1-0.9,2.1-2.1s-0.9-2.1-2.1-2.1H4.1C2.9,7.2,2,8.2,2,9.4S2.9,11.5,4.1,11.5L4.1,11.5z
	"/>
<path fill="#4CAF50" d="M19.9,7.2c-1.2,0-2.1,0.9-2.1,2.1v0v2.1h2.1c1.2,0,2.1-0.9,2.1-2.1S21,7.2,19.9,7.2
	C19.9,7.2,19.9,7.2,19.9,7.2z"/>
<path fill="#4CAF50" d="M12.5,4.1v5.3c0,1.2,0.9,2.1,2.1,2.1s2.1-0.9,2.1-2.1V4.1c0-1.2-0.9-2.1-2.1-2.1S12.5,2.9,12.5,4.1L12.5,4.1
	z"/>
<path fill="#FF9800" d="M16.7,19.9c0-1.2-0.9-2.1-2.1-2.1h-2.1v2.1c0,1.2,0.9,2.1,2.1,2.1S16.7,21,16.7,19.9L16.7,19.9z"/>
<path fill="#FF9800" d="M19.9,12.5h-5.3c-1.2,0-2.1,0.9-2.1,2.1s0.9,2.1,2.1,2.1h5.3c1.2,0,2.1-0.9,2.1-2.1S21.1,12.5,19.9,12.5z"/>
</svg>
