<?xml version="1.0" encoding="utf-8"?>
<!-- Generator: Adobe Illustrator 22.0.0, SVG Export Plug-In . SVG Version: 6.00 Build 0)  -->
<svg version="1.1" id="Layer_1" xmlns="http://www.w3.org/2000/svg" xmlns:xlink="http://www.w3.org/1999/xlink" x="0px" y="0px"
	 viewBox="0 0 24 24" style="enable-background:new 0 0 24 24;" xml:space="preserve">
<style type="text/css">
	.st0{fill:#FFFFFF;}
</style>
<path class="st0" d="M8.5,11.1L8,11.5c-0.2,0.2-0.6,0.2-0.8,0s-0.2-0.6,0-0.8l1.5-1.5C8.9,9,9.2,9,9.5,9.2l1.5,1.5
	c0.2,0.2,0.2,0.6,0,0.8c-0.2,0.2-0.6,0.2-0.8,0l-0.5-0.5V12c0,1.3,1.1,2.4,2.4,2.4c0.3,0,0.6,0.3,0.6,0.6s-0.3,0.6-0.6,0.6
	c-1.9,0-3.5-1.6-3.5-3.5V11.1z M15.5,12.9l0.5-0.5c0.2-0.2,0.6-0.2,0.8,0c0.2,0.2,0.2,0.6,0,0.8l-1.5,1.5c-0.2,0.2-0.6,0.2-0.8,0
	l-1.5-1.5c-0.2-0.2-0.2-0.6,0-0.8c0.2-0.2,0.6-0.2,0.8,0l0.5,0.5V12c0-1.3-1.1-2.4-2.4-2.4c-0.3,0-0.6-0.3-0.6-0.6s0.3-0.6,0.6-0.6
	c1.9,0,3.5,1.6,3.5,3.5V12.9z M14.6,4.4h-1.5c-0.1,0-0.2,0-0.2,0.1L9.8,6.3C9.3,6.7,8.6,6.5,8.3,6C7.9,5.5,8.1,4.8,8.6,4.5l3.2-2
	c0.4-0.2,1-0.4,1.4-0.4h7.1c0.3,0,0.6,0.3,0.6,0.6v2.4c0,0.1,0,0.3-0.1,0.4c0,0-0.1,0.1-0.1,0.1c0,0-0.1,0-0.1,0.1l-2.4,1.2
	c-0.4,0.2-1,0.3-1.4,0.3h-2.8c-0.6,0-1-0.5-1-1c0-0.6,0.5-1,1-1h1.3c0.2,0,0.3-0.1,0.3-0.3c0-0.2-0.1-0.3-0.3-0.3L14.6,4.4
	C14.6,4.4,14.6,4.4,14.6,4.4L14.6,4.4z M9.4,19.6h1.5c0.1,0,0.2,0,0.2-0.1l3.1-1.9c0.5-0.3,1.2-0.2,1.5,0.3c0.3,0.5,0.2,1.2-0.3,1.5
	l-3.2,2c-0.4,0.2-1,0.4-1.4,0.4H3.8c-0.3,0-0.6-0.3-0.6-0.6v-2.4c0-0.1,0-0.3,0.1-0.4c0,0,0.1-0.1,0.1-0.1c0,0,0.1,0,0.1-0.1
	l2.4-1.2c0.4-0.2,1-0.3,1.4-0.3h2.8c0.6,0,1,0.5,1,1c0,0.6-0.5,1-1,1H8.8c-0.2,0-0.3,0.1-0.3,0.3c0,0.2,0.1,0.3,0.3,0.3L9.4,19.6
	C9.4,19.6,9.4,19.6,9.4,19.6L9.4,19.6z"/>
</svg>
