<?xml version="1.0" encoding="utf-8"?>
<!-- Generator: Adobe Illustrator 22.0.0, SVG Export Plug-In . SVG Version: 6.00 Build 0)  -->
<svg version="1.1" id="Layer_1" xmlns="http://www.w3.org/2000/svg" xmlns:xlink="http://www.w3.org/1999/xlink" x="0px" y="0px"
	 viewBox="0 0 24 24" enable-background="new 0 0 24 24" xml:space="preserve">
<g display="none">
	<path display="inline" fill="#2F313C" d="M7.1,7.4L5.4,7.5c-0.5,0-0.9,0.3-1.2,0.7l-2,3c-0.2,0.3-0.2,0.7-0.1,1
		c0.1,0.3,0.5,0.6,0.8,0.6L4.5,13C4.9,11.2,5.8,9.2,7.1,7.4L7.1,7.4z"/>
	<path display="inline" fill="#2F313C" d="M10.9,19.5l0.2,1.6c0.1,0.4,0.3,0.7,0.6,0.8C11.9,22,12,22,12.2,22s0.4-0.1,0.6-0.2l3-2
		c0.4-0.3,0.7-0.7,0.7-1.2l0.1-1.7C14.8,18.2,12.8,19.1,10.9,19.5L10.9,19.5z"/>
	<path display="inline" fill="#2F313C" d="M10.3,18.4c0.1,0,0.1,0,0.2,0c0.8-0.1,1.6-0.4,2.4-0.7l-6.5-6.5C6,12,5.7,12.8,5.6,13.6
		c-0.1,0.3,0.1,0.7,0.3,0.9l3.6,3.6C9.7,18.3,10,18.4,10.3,18.4z"/>
	<path display="inline" fill="#2F313C" d="M20.4,10.9C22,7.8,22.1,4.5,22,3c0-0.5-0.4-0.9-1-1c-0.2,0-0.5,0-0.9,0
		c-1.7,0-4.4,0.3-7,1.6c-2,1.1-4.7,3.4-6.3,6.5c0,0,0,0,0.1,0l7,7c0,0,0,0,0,0.1C17,15.6,19.3,12.9,20.4,10.9L20.4,10.9z M13.6,6.2
		c1.1-1.1,3-1.1,4.1,0c0.6,0.6,0.9,1.3,0.9,2.1s-0.3,1.5-0.9,2.1s-1.3,0.9-2.1,0.9c-0.8,0-1.5-0.3-2.1-0.9c-0.6-0.6-0.9-1.3-0.9-2.1
		C12.8,7.5,13.1,6.8,13.6,6.2L13.6,6.2z"/>
	<path display="inline" fill="#2F313C" d="M14.5,9.5c0.7,0.7,1.8,0.7,2.5,0c0.3-0.3,0.5-0.8,0.5-1.2S17.3,7.4,17,7.1
		c-0.3-0.3-0.8-0.5-1.2-0.5c-0.5,0-0.9,0.2-1.2,0.5s-0.5,0.8-0.5,1.2C13.9,8.8,14.1,9.2,14.5,9.5L14.5,9.5z"/>
	<path display="inline" fill="#2F313C" d="M2.6,18.5c0.1,0,0.3-0.1,0.4-0.2l1.9-1.9c0.2-0.2,0.2-0.6,0-0.8s-0.6-0.2-0.8,0l-1.9,1.9
		c-0.2,0.2-0.2,0.6,0,0.8C2.3,18.4,2.4,18.5,2.6,18.5z"/>
	<path display="inline" fill="#2F313C" d="M6.7,17.3c-0.2-0.2-0.6-0.2-0.8,0L2.2,21c-0.2,0.2-0.2,0.6,0,0.8C2.3,21.9,2.4,22,2.6,22
		s0.3-0.1,0.4-0.2l3.7-3.7C6.9,17.9,6.9,17.6,6.7,17.3L6.7,17.3z"/>
	<path display="inline" fill="#2F313C" d="M7.6,19.1L5.7,21c-0.2,0.2-0.2,0.6,0,0.8C5.8,21.9,6,22,6.1,22s0.3-0.1,0.4-0.2l1.9-1.9
		c0.2-0.2,0.2-0.6,0-0.8C8.2,18.8,7.8,18.8,7.6,19.1L7.6,19.1z"/>
</g>
<g>
	<path fill="#2F313C" d="M11.7,6.6c-0.5-0.6-1.1-1.1-1.8-1.4C8.4,4.6,6.6,5.1,5.6,6.3C5.1,7,4.8,7.7,4.7,8.5
		c-0.1,0.8,0.1,1.6,0.5,2.2c0.4,0.6,1,1.2,1.7,1.5c0.8,0.3,1.6,0.4,2.4,0.3c1.5-0.3,2.8-1.6,3-3.1c0-0.2,0.1-0.4,0.1-0.6v0
		C12.4,8,12.2,7.2,11.7,6.6z M6.2,6.9C6.2,6.9,6.2,7,6.2,6.9C6.2,7,6.2,7,6.2,6.9z M11.4,7.7C11.3,7.6,11.3,7.6,11.4,7.7
		C11.3,7.6,11.4,7.7,11.4,7.7z M11.5,9.2C11.5,9.2,11.5,9.2,11.5,9.2C11.5,9.2,11.5,9.2,11.5,9.2z M11.5,9.2L11.5,9.2
		C11.5,9.2,11.5,9.2,11.5,9.2C11.5,9.2,11.5,9.2,11.5,9.2C11.5,9.2,11.5,9.2,11.5,9.2z M9,11.8C9,11.8,9,11.8,9,11.8L9,11.8
		C9,11.8,9,11.8,9,11.8z M9,5.8C9,5.8,9,5.8,9,5.8C9,5.8,9,5.8,9,5.8z M10.4,11.2C10.4,11.2,10.4,11.2,10.4,11.2L10.4,11.2z
		 M9.7,11.6C9.7,11.6,9.7,11.6,9.7,11.6C9.7,11.6,9.7,11.6,9.7,11.6z M7.4,11.6C7.4,11.6,7.4,11.6,7.4,11.6
		C7.4,11.6,7.4,11.5,7.4,11.6C7.4,11.6,7.4,11.6,7.4,11.6C7.4,11.6,7.4,11.6,7.4,11.6z M8.1,5.8C8.2,5.8,8.2,5.8,8.1,5.8
		C8.2,5.8,8.2,5.8,8.1,5.8C8.2,5.8,8.2,5.8,8.1,5.8z M8.2,11.8C8.2,11.8,8.2,11.8,8.2,11.8C8.2,11.8,8.1,11.8,8.2,11.8z M5.8,7.7
		C5.8,7.6,5.8,7.6,5.8,7.7C5.8,7.6,5.8,7.6,5.8,7.7z M5.6,8.4C5.6,8.4,5.6,8.3,5.6,8.4L5.6,8.4C5.6,8.4,5.6,8.4,5.6,8.4z M5.6,9.2
		L5.6,9.2C5.6,9.3,5.6,9.2,5.6,9.2L5.6,9.2C5.6,9.2,5.6,9.2,5.6,9.2C5.6,9.2,5.6,9.2,5.6,9.2C5.6,9.2,5.6,9.2,5.6,9.2
		C5.6,9.2,5.6,9.2,5.6,9.2z M5.8,10C5.8,10,5.8,9.9,5.8,10C5.8,9.9,5.8,10,5.8,10z"/>
	<path fill="#2F313C" d="M15.1,15.7C15.1,15.7,15.1,15.7,15.1,15.7c0-1.2-0.5-2.4-1.3-3.2c-0.2-0.2-0.5-0.4-0.8-0.6
		c-0.1-0.1-0.4-0.1-0.5,0.1c-0.2,0.2-0.4,0.5-0.6,0.7c-0.1,0-0.1,0.1-0.2,0.1c0,0-0.1,0-0.1,0.1c0,0,0,0,0,0c0,0,0,0,0,0
		c0,0,0,0,0,0c0,0,0,0,0,0c-0.1,0.1-0.3,0.2-0.4,0.3c-0.1,0.1-0.3,0.2-0.4,0.2c-0.1,0-0.1,0.1-0.2,0.1c0,0-0.1,0-0.1,0c0,0,0,0,0,0
		c0,0,0,0,0,0c0,0,0,0,0,0c0,0,0,0,0,0c0,0,0,0,0,0c-0.3,0.1-0.6,0.2-0.9,0.3c-0.1,0-0.1,0-0.2,0c0,0-0.1,0-0.1,0c0,0,0,0,0,0
		c0,0,0,0,0,0c0,0-0.1,0-0.1,0c-0.2,0-0.3,0-0.5,0c-0.2,0-0.3,0-0.5,0c-0.1,0-0.2,0-0.2,0c0,0,0,0-0.1,0l0,0c0,0,0,0,0,0h0l0,0
		c0,0,0,0,0,0l0,0c0,0,0,0,0,0c0,0,0,0,0,0c0,0,0,0,0,0c0,0,0,0-0.1,0c-0.3-0.1-0.6-0.1-0.9-0.2c-0.1,0-0.1-0.1-0.2-0.1
		c0,0,0,0-0.1,0c0,0,0,0,0,0c0,0,0,0,0,0c0,0-0.1,0,0,0c0,0-0.1,0-0.1,0c-0.1-0.1-0.3-0.1-0.4-0.2c-0.2-0.1-0.3-0.2-0.4-0.3
		c-0.1,0-0.1-0.1-0.2-0.1c0,0,0,0,0,0c0,0,0,0,0,0c0,0,0,0,0,0c0,0,0,0-0.1-0.1c0,0-0.1-0.1-0.1-0.1c-0.3-0.2-0.5-0.5-0.7-0.8
		c-0.1-0.1-0.4-0.2-0.5-0.1c-1.3,0.9-2,2.3-2,3.8c0,0.7,0,1.4,0,2.1c0,0.3,0,0.5,0,0.8c0,0.8,0.6,1.5,1.4,1.6c0.4,0.1,0.8,0,1.2,0
		h7.5c0.4,0,0.8,0,1.3,0c0.5,0,1-0.2,1.4-0.6c0.3-0.3,0.4-0.7,0.4-1.1c0-0.1,0-0.1,0-0.2L15.1,15.7L15.1,15.7z"/>
	<path fill="#2F313C" d="M19.2,5.1c-0.4-0.5-0.9-1-1.6-1.2c-1.2-0.5-2.7-0.1-3.6,1c-0.4,0.5-0.7,1.2-0.8,1.8
		c-0.1,0.7,0.1,1.3,0.5,1.9c0.3,0.5,0.8,1,1.4,1.3c0.6,0.3,1.3,0.4,2,0.2c1.3-0.3,2.3-1.3,2.5-2.6c0-0.2,0-0.4,0-0.5v0
		C19.7,6.3,19.5,5.6,19.2,5.1z"/>
	<path fill="#2F313C" d="M21.8,11.4c-0.2-0.6-0.6-1.2-1.1-1.7c-0.1-0.1-0.3-0.2-0.4-0.3c-0.1-0.1-0.4-0.1-0.5,0.1
		c-0.2,0.3-0.5,0.5-0.7,0.7c0,0,0,0,0,0l0,0c0,0,0,0,0,0c0,0-0.1,0-0.1,0.1c-0.1,0-0.1,0.1-0.2,0.1c-0.1,0.1-0.3,0.2-0.5,0.2
		c0,0-0.1,0-0.1,0c0,0,0,0-0.1,0c-0.1,0-0.2,0.1-0.3,0.1c-0.2,0.1-0.3,0.1-0.5,0.1c-0.1,0-0.2,0-0.2,0c0,0,0,0,0,0s0,0,0,0h0
		c0,0-0.1,0-0.1,0c-0.1,0-0.1,0-0.1,0c-0.2,0-0.4,0-0.6,0c-0.1,0-0.1,0-0.2,0c0,0-0.1,0-0.1,0c0,0,0,0,0,0l0,0c0,0,0,0,0,0l0,0
		c0,0,0,0,0,0c0,0,0,0,0,0c-0.1,0-0.2,0-0.3-0.1c-0.2,0-0.4-0.1-0.6-0.2c0,0,0,0-0.1,0h0c-0.2-0.1-0.4,0.1-0.5,0.2c0,0,0,0,0,0
		c0.1,0.1,0.3,0.2,0.4,0.4c0.1,0.1,0.2,0.2,0.3,0.3c0,0,0.1,0.1,0.1,0.1c0.1,0.1,0.2,0.3,0.3,0.4c0.6,0.8,1,1.8,1.1,2.8
		c0,0.2,0,0.4,0,0.5c0,0,0,0,0,0v0.9h3.6c0,0,0.1,0,0.1,0c0.4,0,0.7-0.1,1-0.4c0.3-0.2,0.4-0.5,0.5-0.8c0-0.1,0-0.3,0-0.4v-2.1
		C22,12.3,22,11.9,21.8,11.4z"/>
</g>
</svg>
