<?xml version="1.0" encoding="utf-8"?>
<!-- Generator: Adobe Illustrator 22.0.0, SVG Export Plug-In . SVG Version: 6.00 Build 0)  -->
<svg version="1.1" id="Layer_1" xmlns="http://www.w3.org/2000/svg" xmlns:xlink="http://www.w3.org/1999/xlink" x="0px" y="0px"
	 viewBox="0 0 24 24" enable-background="new 0 0 24 24" xml:space="preserve">
<path fill="#FF4A00" d="M11.7,2c0.2,0,0.4,0,0.6,0c0,0,0,0,0,0c0.3,0,0.5,0,0.8,0.1c0.2,0,0.3,0,0.5,0.1c0,1.9,0,3.9,0,5.8
	c1.4-1.4,2.7-2.7,4.1-4.1c0.6,0.4,2,1.8,2.4,2.4C18.8,7.6,17.4,9,16,10.3c1.9,0,3.9,0,5.8,0c0,0.3,0.1,0.6,0.1,0.9
	c0,0.2,0,0.3,0,0.5c0,0.2,0,0.4,0,0.6c0,0,0,0,0,0.1c0,0.3,0,0.5-0.1,0.8c0,0.2,0,0.3-0.1,0.5c-1.9,0-3.9,0-5.8,0
	c1.4,1.4,2.8,2.8,4.1,4.1c-0.7,0.9-1.4,1.7-2.4,2.4c-1.4-1.4-2.7-2.7-4.1-4.1c0,1.9,0,3.9,0,5.8c-1.1,0.2-2.2,0.2-3.3,0
	c0-1.9,0-3.9,0-5.8c-1.4,1.4-2.8,2.8-4.1,4.1c-0.9-0.7-1.7-1.4-2.4-2.4C5.2,16.4,6.6,15,8,13.7c-1.9,0-3.9,0-5.8,0
	c0-0.3-0.1-0.6-0.1-0.9c0-0.2,0-0.3,0-0.5c0-0.2,0-0.3,0-0.5c0,0,0-0.1,0-0.1c0-0.3,0-0.6,0.1-0.9c0-0.2,0-0.3,0.1-0.5
	c1.9,0,3.9,0,5.8,0C6.6,9,5.2,7.6,3.9,6.2c0.7-0.9,1.4-1.7,2.4-2.4C7.6,5.2,9,6.6,10.3,8c0-1.9,0-3.9,0-5.8c0.3,0,0.6-0.1,0.9-0.1
	C11.4,2,11.5,2,11.7,2z M12,14.5c0.7,0,1.4-0.1,2-0.4c0.1,0,0.1-0.1,0.1-0.1c0.2-0.6,0.3-1.1,0.3-1.7c0-0.8-0.1-1.6-0.3-2.3
	c0-0.1-0.1-0.1-0.1-0.1c-0.7-0.3-1.5-0.4-2.2-0.4c-0.6,0-1.2,0.1-1.8,0.3c-0.1,0-0.1,0.1-0.1,0.1c-0.2,0.5-0.3,1.1-0.3,1.6
	c-0.1,0.8,0.1,1.6,0.3,2.4c0,0.1,0.1,0.1,0.1,0.1C10.6,14.4,11.3,14.5,12,14.5z"/>
</svg>
